<?xml version="1.0" encoding="UTF-8"?>
<svg width="511px" height="672px" viewBox="0 0 511 672" version="1.1" xmlns="http://www.w3.org/2000/svg" xmlns:xlink="http://www.w3.org/1999/xlink">
    <title>Group 6</title>
    <g id="Page-1" stroke="none" stroke-width="1" fill="none" fill-rule="evenodd">
        <g id="Group-6">
            <path d="M95.1340564,104.655476 C204.177275,17.2283749 339.509142,-23.5948497 416.644525,64.2551045 C493.779908,152.105059 557.930243,416.467089 462.075807,510.185699 C366.221371,603.904309 215.731195,661.015116 133.399307,598.314374 C51.0674188,535.613632 58.8954974,482.335865 49.3171264,358.765575 C39.7387553,235.195285 -13.9091622,192.082577 95.1340564,104.655476 Z" id="Rectangle" fill="#FFFFFF"></path>
            <g id="Delivery" fill-rule="nonzero">
                <g id="Bagpack" transform="translate(295.349142, 140.683726)">
                    <path d="M102.179,12.823 C108.334,13.782 113.164,18.606 114.131,24.759 L126.076,100.746 L98.77,100.391 L19.903,0 L102.179,12.823 Z" id="Shape" fill="#0080A3"></path>
                    <path d="M107.081,26.713 C109.116,36.805 86.049,200.008 77.23,199.139 C68.41,198.27 -2.13162821e-14,189.726 -2.13162821e-14,189.726 L27.705,11.703 C27.705,11.703 105.045,16.622 107.081,26.713 Z" id="Shape" fill="#00AEC8"></path>
                    <polygon id="Shape" fill="#FFFFFE" points="39.917 79.884 89.442 87.008 82.657 125.916 33.504 118.215"></polygon>
                    <path d="M89.442,119.194 C89.442,119.194 79.266,179.387 75.195,179.992 C71.124,180.598 20.921,175.475 19.903,170.992 C18.886,166.509 30.59,114.022 30.59,114.022 L89.442,119.194 Z" id="Shape" fill="#0080A3"></path>
                    <polygon id="Shape" fill="#B3E0D0" points="82.621 92.656 82.252 95.634 46.974 91.263 47.343 88.285"></polygon>
                    <polygon id="Shape" fill="#B3E0D0" points="81.214 101.411 80.845 104.389 45.567 100.018 45.936 97.04"></polygon>
                    <polygon id="Shape" fill="#B3E0D0" points="79.807 110.166 79.438 113.144 44.16 108.773 44.529 105.795"></polygon>
                </g>
                <g id="Box" transform="translate(104.824245, 0.000000)">
                    <path d="M6.87589719,29.2907262 L10.9718972,26.8777262 L6.87589719,23.3167262 C6.87589719,23.3167262 26.9668972,27.4107262 36.7948972,29.2377262 L36.2358972,32.2387262 C26.5768972,30.4427262 6.87589719,29.2907262 6.87589719,29.2907262 Z" id="Shape" fill="#E73A5E"></path>
                    <path d="M17.6248972,20.0037262 C14.3098972,15.2887262 13.6948972,10.4587262 15.9788972,7.08272617 C18.4878972,3.37772617 23.6048972,2.85172617 27.2968972,3.93172617 C32.4898972,5.44972617 37.0148972,9.76372617 39.7108972,15.7667262 C42.0578972,20.9907262 42.8178972,26.6287262 43.5538972,32.0807262 L40.5288972,32.4897262 C39.8218972,27.2527262 39.0908972,21.8377262 36.9268972,17.0177262 C34.5958972,11.8307262 30.7738972,8.12972617 26.4398972,6.86272617 C23.6908972,6.05872617 20.0848972,6.46472617 18.5068972,8.79472617 C16.6878972,11.4837262 18.1488972,15.4407262 20.1218972,18.2477262 C24.6008972,24.6157262 31.8948972,28.9327262 39.6328972,29.7957262 L39.2948972,32.8297262 C30.7008972,31.8717262 22.5998972,27.0767262 17.6248972,20.0037262 Z" id="Shape" fill="#E73A5E"></path>
                    <path d="M48.1578972,32.1857262 C53.8638972,27.2967262 58.5858972,21.4757262 62.1938972,14.8857262 C63.1478972,13.1437262 64.0648972,11.2617262 64.3228972,9.30872617 C64.5778972,7.37672617 64.0898972,5.56572617 63.0168972,4.46272617 C61.2018972,2.59572617 57.9348972,2.80172617 55.5018972,3.83472617 C51.2648972,5.63372617 47.7988972,9.71372617 45.9948972,15.0297262 C44.2488972,20.1707262 44.1678972,25.8487262 44.3188972,30.7247262 L41.2668972,30.8187262 C41.1078972,25.6697262 41.2018972,19.6497262 43.1038972,14.0487262 C45.1878972,7.90972617 49.2718972,3.16272617 54.3088972,1.02372617 C57.4508972,-0.310273835 62.1908972,-0.767273835 65.2068972,2.33472617 C66.9238972,4.10172617 67.7258972,6.85772617 67.3498972,9.70772617 C67.0258972,12.1587262 65.9678972,14.3497262 64.8718972,16.3517262 C61.0858972,23.2667262 56.1318972,29.3737262 50.1448972,34.5037262 L48.1578972,32.1857262 Z" id="Shape" fill="#E73A5E"></path>
                    <path d="M11.9888972,93.2737262 L71.5208972,75.0357262 L91.3648972,87.2577262 C91.3648972,87.2577262 51.6768972,99.9217262 11.9888972,93.2737262 Z" id="Shape" fill="#7DB1A1"></path>
                    <path d="M87.7128972,40.4467262 C88.6508972,45.1957262 95.4358972,85.2227262 91.3648972,87.2577262 C87.2938972,89.2927262 66.4328972,85.8587262 66.4328972,85.8587262 L57.7828972,26.1997262 C57.7828972,26.1997262 86.7748972,35.6977262 87.7128972,40.4467262 Z" id="Shape" fill="#7DB1A1"></path>
                    <path d="M1.13389719,40.4467262 C5.88289719,39.0897262 55.4078972,22.1297262 57.7818972,26.1997262 C60.1568972,30.2707262 69.3158972,83.1027262 66.4318972,85.8587262 C63.5488972,88.6147262 13.3458972,100.672726 10.6318972,91.5907262 C7.91789719,82.5087262 -3.61510281,41.8037262 1.13389719,40.4467262 Z" id="Shape" fill="#B3E0D0"></path>
                    <path d="M40.5518972,92.8007262 L28.8038972,31.7447262 C27.8218972,32.0367262 26.8408972,32.3307262 25.8648972,32.6267262 L37.5418972,93.3157262 C38.5458972,93.1527262 39.5498972,92.9807262 40.5518972,92.8007262 Z" id="Shape" fill="#E73A5E"></path>
                    <path d="M4.69989719,69.8547262 C23.9518972,61.7957262 43.0658972,57.2447262 64.0818972,56.5367262 L63.5718972,53.3817262 C42.3508972,54.0947262 23.3858972,58.7647262 3.96489719,66.8537262 C4.20689719,67.8567262 4.45189719,68.8577262 4.69989719,69.8547262 Z" id="Shape" fill="#E73A5E"></path>
                    <path d="M90.7728972,59.8437262 C89.0128972,59.2497262 87.2328972,58.5907262 85.3868972,57.8987262 C79.1878972,55.5757262 70.1038972,53.1597262 63.5708972,53.3797262 L64.0808972,56.5377262 C70.0258972,56.3287262 78.3978972,58.5387262 84.3158972,60.7567262 C86.5788972,61.6047262 88.9008972,62.4707262 91.2108972,63.2007262 C91.0698972,62.0757262 90.9228972,60.9557262 90.7728972,59.8437262 Z" id="Shape" fill="#E73A5E"></path>
                    <path d="M82.1328972,87.7397262 L84.0898972,87.8037262 L84.2338972,86.3127262 L84.0508972,86.2957262 C83.3738972,68.1067262 80.4298972,50.1137262 75.2918972,32.7417262 C74.0878972,32.2297262 72.8628972,31.7287262 71.6458972,31.2437262 C77.2758972,49.4987262 80.4408972,68.4737262 81.0428972,87.6607262 C81.4088972,87.6887262 81.7718972,87.7157262 82.1328972,87.7397262 Z" id="Shape" fill="#E73A5E"></path>
                </g>
                <polygon id="Shape" fill="#3A3B39" points="345.781142 431.218726 367.661142 445.719726 347.562142 445.974726 338.658142 460.729726 327.464142 456.150726"></polygon>
                <path d="M109.181142,638.816726 L126.481142,638.816726 C126.481142,638.816726 181.942142,456.659726 220.612142,401.707726 C220.612142,401.707726 218.695142,544.176726 255.780142,550.281726 C292.864142,556.387726 345.781142,460.729726 345.781142,460.729726 L328.853142,449.535726 L275.372142,512.629726 C275.372142,512.629726 295.799142,415.954726 295.349142,383.898726 L162.607142,383.898726 C162.607142,383.898726 112.234142,555.370726 109.181142,638.816726 Z" id="Shape" fill="#00A650"></path>
                <polygon id="Shape" fill="#008B44" points="294.570142 399.163726 295.349142 383.898726 162.607142 383.898726"></polygon>
                <path d="M233.842142,177.827726 C214.128142,177.827726 202.311142,157.314726 201.852142,138.517726 L166.169142,144.754726 L162.607142,383.898726 L302.023142,391.021726 L315.253142,140.683726 C315.253142,140.683726 305.760142,136.201726 285.653142,133.502726 C278.713142,157.616726 260.518142,178.611726 233.842142,177.827726 Z" id="Shape" fill="#FB9300"></path>
                <path d="M295.470142,135.095726 C248.009142,180.225726 262.227142,245.613726 262.227142,245.613726 L313.631142,171.353726 L315.252142,140.683726 C315.252142,140.683726 308.861142,137.668726 295.470142,135.095726 Z" id="Shape" fill="#3A3B39"></path>
                <path d="M228.753142,162.563726 C252.907142,166.954726 267.058142,151.341726 275.372142,132.383726 C269.517142,131.890726 263.003142,131.565726 255.785142,131.513726 C252.772142,131.491726 250.349142,129.024726 250.349142,126.012726 L250.349142,107.489726 C250.349142,107.489726 263.392142,99.2077262 262.228142,95.3997262 C261.063142,91.5917262 250.349142,98.7067262 250.349142,98.7067262 L262.228142,73.0117262 L235.386142,61.6427262 C235.386142,61.6427262 215.779142,102.777726 221.630142,109.646726 C221.630142,109.646726 226.288142,114.225726 230.065142,117.024726 L228.760142,133.814726 L212.285142,136.694726 C212.657142,148.419726 216.307142,160.903726 228.753142,162.563726 Z" id="Shape" fill="#F9B6A8"></path>
                <path d="M285.652142,133.502726 C282.487142,133.077726 279.068142,132.695726 275.371142,132.383726 C267.057142,151.341726 252.906142,166.954726 228.753142,162.562726 C216.306142,160.903726 212.657142,148.418726 212.284142,136.694726 L201.851142,138.517726 C202.311142,157.314726 214.128142,177.827726 233.841142,177.827726 C260.517142,178.612726 278.712142,157.616726 285.652142,133.502726 Z" id="Shape" fill="#FFFFFE"></path>
                <path d="M247.580142,97.9547262 L250.349142,98.7057262 C250.349142,98.7057262 254.850142,95.7197262 259.174142,94.7017262 L263.980142,80.4237262 L255.721142,73.0107262 C255.721142,73.0107262 251.396142,75.8327262 247.580142,97.9547262 Z" id="Shape" fill="#523B5D"></path>
                <path d="M240.456142,117.023726 C240.456142,117.023726 233.078142,114.734726 230.279142,105.829726 C230.279142,105.829726 223.410142,107.865726 215.778142,107.610726 C215.778142,107.610726 221.121142,96.1627262 235.113142,98.1977262 C235.113142,98.1977262 241.982142,105.575726 240.456142,117.023726 Z" id="Shape" fill="#523B5D"></path>
                <path d="M229.465142,96.6697262 L235.155142,99.5307262 C235.155142,99.5307262 239.791142,85.7107262 237.163142,83.8187262 C234.535142,81.9267262 229.465142,96.6697262 229.465142,96.6697262 Z" id="Shape" fill="#CC395D"></path>
                <path d="M243.636142,83.4417262 C242.582142,83.4417262 241.728142,84.2957262 241.728142,85.3497262 C241.728142,86.4037262 242.582142,87.2577262 243.636142,87.2577262 C244.690142,87.2577262 245.544142,86.4037262 245.544142,85.3497262 C245.544142,84.2957262 244.690142,83.4417262 243.636142,83.4417262 Z" id="Shape" fill="#3A3B39"></path>
                <path d="M231.373142,78.5157262 C230.319142,78.5157262 229.465142,79.3697262 229.465142,80.4237262 C229.465142,81.4777262 230.319142,82.3317262 231.373142,82.3317262 C232.427142,82.3317262 233.281142,81.4777262 233.281142,80.4237262 C233.281142,79.3697262 232.427142,78.5157262 231.373142,78.5157262 Z" id="Shape" fill="#3A3B39"></path>
                <path d="M246.405591,71.5649423 L210.343142,54.7087262 C209.579142,54.3517262 209.250142,53.4437262 209.607142,52.6797262 C209.964142,51.9167262 210.873142,51.5877262 211.636142,51.9437262 L234.80901,62.774887 C237.065512,58.1940979 242.570594,48.8397736 248.969142,51.1667262 C257.365142,54.2197262 273.715142,59.9247262 263.979142,80.4237262 L246.405591,71.5649423 Z" id="Combined-Shape" fill="#FB9300"></path>
                <path d="M246.692142,80.5637262 C246.378142,79.9157262 245.752142,79.4007262 244.973142,79.1507262 C244.193142,78.8997262 243.384142,78.9557262 242.753142,79.2997262 C242.268142,79.5657262 241.660142,79.3847262 241.396142,78.9007262 C241.132142,78.4157262 241.311142,77.8087262 241.796142,77.5447262 C242.906142,76.9387262 244.287142,76.8317262 245.584142,77.2467262 C246.881142,77.6627262 247.941142,78.5537262 248.491142,79.6917262 C248.732142,80.1897262 248.524142,80.7877262 248.027142,81.0277262 C247.887142,81.0957262 247.738142,81.1277262 247.592142,81.1277262 C247.221142,81.1277262 246.864142,80.9197262 246.692142,80.5637262 Z" id="Shape" fill="#3A3B39"></path>
                <path d="M234.531142,75.5547262 C233.756142,74.2777262 231.854142,73.7627262 230.540142,74.4727262 C230.054142,74.7347262 229.448142,74.5537262 229.185142,74.0687262 C228.923142,73.5827262 229.103142,72.9757262 229.589142,72.7127262 C231.856142,71.4857262 234.903142,72.3127262 236.241142,74.5167262 C236.528142,74.9887262 236.377142,75.6037262 235.905142,75.8907262 C235.743142,75.9887262 235.564142,76.0357262 235.387142,76.0357262 C235.049142,76.0357262 234.720142,75.8647262 234.531142,75.5547262 Z" id="Shape" fill="#3A3B39"></path>
                <path d="M250.003142,102.530726 C249.809142,102.333726 249.811142,102.017726 250.008142,101.823726 C252.289142,99.5747262 255.098142,97.8367262 258.131142,96.7997262 C258.390142,96.7117262 258.676142,96.8497262 258.766142,97.1117262 C258.855142,97.3727262 258.715142,97.6567262 258.454142,97.7457262 C255.563142,98.7347262 252.885142,100.390726 250.710142,102.535726 C250.612142,102.631726 250.486142,102.679726 250.359142,102.679726 C250.230142,102.679726 250.101142,102.629726 250.003142,102.530726 Z" id="Shape" fill="#CC395D"></path>
                <polygon id="Shape" fill="#CC395D" points="235.386142 120.330726 229.465142 120.330726 230.065142 117.023726"></polygon>
                <polygon id="Shape" fill="#CC395D" points="228.228142 142.464726 224.717142 134.521726 228.760142 133.814726"></polygon>
                <g id="Box" transform="translate(40.490142, 213.444726)">
                    <polygon id="Shape" fill="#B3E0D0" points="116.967 19.347 140.225 150.61 19.845 162.313 0.001 14.247"></polygon>
                    <polygon id="Shape" fill="#7DB1A1" points="203.338 -2.13162821e-13 215.29 121.099 140.225 150.61 116.967 19.347"></polygon>
                    <path d="M82.4626086,27.985 L101.768879,137.902282 L78.3904733,140.252593 L80.395,139.898 L60.5815684,27.985 L82.4626086,27.985 Z M86.5952617,27.985 L107.87,27.985 L127.206,135.345 L103.811007,137.696979 L105.804,137.347 L86.5952617,27.985 Z M56.4478681,27.985 L76.3603875,140.456685 L49.9310643,143.113716 L51.932,142.75 L31.0721611,27.985 L56.4478681,27.985 Z M29.0035,27.985 L27.001,28.349 L47.8979387,143.318113 L31.039,145.013 L11.704,27.985 L29.0035,27.985 Z" id="Combined-Shape" fill="#7DB1A1"></path>
                    <path d="M92.33,30.32 L103.143,49.223 L62.714,75.99 L51.116,58.305 C52.642,57.796 92.33,30.32 92.33,30.32 Z" id="Shape" fill="#FFFFFE"></path>
                    <path d="M94.64,64.635 C89.582,64.635 85.482,68.736 85.482,73.794 C85.482,78.852 89.582,82.953 94.64,82.953 C99.698,82.953 103.799,78.852 103.799,73.794 C103.799,68.736 99.698,64.635 94.64,64.635 Z" id="Shape" fill="#FFFFFE"></path>
                    <path d="M180.932432,14.6541691 L194.815,116.965 L196.32479,116.759868 L183.888147,120.313132 L162.856,19.199 L161.37641,19.5064024 L180.932432,14.6541691 Z M182.766667,14.1990594 L194.878,11.194 L206.072,113.975 L197.810343,116.335432 L183.93,14.041 L182.766667,14.1990594 Z M159.879049,19.8779269 L180.922,121.045 L182.411291,120.735084 L165.339334,125.6127 L141.89151,24.3409885 L159.879049,19.8779269 Z M138.92749,25.0764201 L162.382,126.378 L163.85371,126.037157 L149.084,130.257 L127.205,27.985 L138.92749,25.0764201 Z" id="Combined-Shape" fill="#B3E0D0"></path>
                    <polygon id="Shape" fill="#5E877A" points="76.323 2.25597319e-13 -1.42108547e-14 14.247 116.967 19.347 203.338 2.25597319e-13"></polygon>
                </g>
                <path d="M319.954142,249.932726 C300.543142,249.983726 281.118142,250.350726 261.845142,250.781726 C261.533142,254.873726 261.226142,258.801726 260.926142,262.591726 C279.851142,261.787726 298.777142,262.053726 317.702142,262.211726 C318.463142,258.164726 319.217142,254.062726 319.954142,249.932726 Z" id="Shape" fill="#FFFFFE"></path>
                <path d="M162.675142,379.305726 C138.869142,382.115726 135.131142,366.598726 135.131142,366.598726 L155.229142,366.598726 L147.851142,354.386726 L151.413142,354.386726 L162.607142,364.054726 L255.152142,327.414726 C255.152142,327.414726 257.628142,304.223726 260.926142,262.591726 C279.851142,261.788726 298.777142,262.054726 317.702142,262.211726 C312.946142,287.518726 307.946142,310.633726 305.550142,324.284726 C297.883142,367.960726 162.675142,379.305726 162.675142,379.305726 Z" id="Combined-Shape" fill="#F9B6A8"></path>
                <path d="M263.979142,221.585726 C263.250142,232.018726 262.534142,241.762726 261.845142,250.781726 C281.118142,250.350726 300.543142,249.983726 319.954142,249.932726 C329.347142,197.267726 335.832142,140.306726 315.252142,140.683726 C315.252142,140.683726 268.677142,154.421726 263.979142,221.585726 Z" id="Shape" fill="#FB9300"></path>
                <polygon id="Shape" fill="#3A3B39" points="107.201142 653.071726 78.1431418 652.045726 116.813142 671.380726 126.481142 638.816726 109.181142 638.816726"></polygon>
                <polygon id="Shape" fill="#008B44" points="194.153142 399.163726 215.457142 409.610726 220.612142 401.707726"></polygon>
                <polygon id="Shape" fill="#008B44" points="271.494142 527.385726 283.161142 503.440726 275.372142 512.629726"></polygon>
                <polygon id="Shape" fill="#F9B6A8" points="82.7231418 371.178726 76.6171418 379.305726 60.3351418 375.757726 65.9321418 367.016726"></polygon>
                <polygon id="Shape" fill="#F9B6A8" points="52.1941418 364.054726 52.1941418 359.984726 58.4901418 361.994726 59.5801418 370.125726"></polygon>
                <g id="Box" transform="translate(0.294142, 109.591726)">
                    <polygon id="Shape" fill="#F9B6A8" points="116.519 103.853 98.711 2.34479103e-13 0 13.284 14.247 118.1"></polygon>
                    <polygon id="Shape" fill="#FB9300" points="187.753 103.853 175.542 16.336 98.71 -1.42108547e-14 116.519 103.853"></polygon>
                    <path d="M13.0581007,22.4062111 L24.5328419,105.597123 L54.6279286,58.6274018 L13.0581007,22.4062111 Z M25.9767807,107.066745 L96.4626138,95.0793716 L56.1591279,59.9615873 L25.9767807,107.066745 Z M97.3376664,93.188902 L85.8930732,13.5562442 L57.2499632,58.2591364 L97.3376664,93.188902 Z M84.5098554,11.9903608 L14.0503093,20.6178234 L55.7187526,56.9249411 L84.5098554,11.9903608 Z M10.573,19.029 L87.35,9.627 L99.839,96.534 L23.065,109.591 L10.573,19.029 Z" id="Combined-Shape" fill="#FB9300"></path>
                    <path d="M124.626738,92.677 L178.233662,92.677 L148.442347,58.2512869 L124.626738,92.677 Z M178.978136,90.4799565 L170.321066,26.6253689 L149.617577,56.5524803 L178.978136,90.4799565 Z M169.285272,24.5789815 L111.351015,12.3337096 L148.25536,54.9783762 L169.285272,24.5789815 Z M110.233034,14.0980549 L123.290636,91.0656639 L147.080148,56.6771814 L110.233034,14.0980549 Z M121.875,94.677 L107.417,9.457 L171.859,23.079 L181.565,94.677 L121.875,94.677 Z" id="Combined-Shape" fill="#CC4900"></path>
                    <polygon id="Shape" fill="#CC4900" points="14.247 118.1 116.52 103.853 187.754 103.853"></polygon>
                </g>
            </g>
        </g>
    </g>
</svg>