<?xml version="1.0" encoding="UTF-8"?>
<svg width="26px" height="26px" viewBox="0 0 26 26" version="1.1" xmlns="http://www.w3.org/2000/svg" xmlns:xlink="http://www.w3.org/1999/xlink">
    <title>Logo</title>
    <defs>
        <rect id="path-1" x="0" y="0" width="26" height="26"></rect>
    </defs>
    <g id="Page-1" stroke="none" stroke-width="1" fill="none" fill-rule="evenodd">
        <g id="Logo">
            <mask id="mask-2" fill="white">
                <use xlink:href="#path-1"></use>
            </mask>
            <use id="Rectangle" fill="currentColor" xlink:href="#path-1"></use>
            <path d="M6.41226994,26 L6.41226994,20.4530675 C6.41226994,20.3095092 6.44457055,20.0941718 6.50917178,19.8070552 C6.57377301,19.5199387 6.70297546,19.2328221 6.89677914,18.9457055 C7.09058282,18.658589 7.37052147,18.403773 7.73659509,18.1812577 C8.10266871,17.9587423 8.58717791,17.8474847 9.1901227,17.8474847 C9.39110429,17.8474847 9.59567485,17.8654294 9.80383436,17.901319 C10.0119939,17.9372086 10.2237423,17.983865 10.4390798,18.0412883 L10.4390798,15.5433742 C10.2811656,15.5003067 10.1268405,15.4644172 9.97610429,15.4357055 C9.8253681,15.4069939 9.67104294,15.392638 9.51312883,15.392638 C8.82404908,15.392638 8.21392638,15.5577301 7.68276074,15.8879141 C7.15159509,16.2180982 6.74245399,16.6846626 6.45533742,17.2876074 L6.41226994,17.2876074 L6.41226994,15.6510429 L3.82822086,15.6510429 L3.82822086,26 L6.41226994,26 Z M19.0245549,26 C19.3071007,25.9063609 19.5174229,25.8303282 19.6555215,25.7719018 C20.4020245,25.4560736 21.0767485,24.924908 21.6796933,24.1784049 L19.8277914,22.7787117 C19.4976074,23.1806748 19.113589,23.5144479 18.6757362,23.7800307 C18.2378834,24.0456135 17.6959509,24.1784049 17.0499387,24.1784049 C16.3177914,24.1784049 15.6933129,23.9630675 15.1765031,23.5323926 C14.6596933,23.1017178 14.3582209,22.498773 14.2720859,21.7235583 L22.1534356,21.7235583 L22.1534356,21.0129448 C22.1534356,20.1085276 22.035,19.3081902 21.7981288,18.6119325 C21.5612577,17.9156748 21.2310736,17.3306748 20.8075767,16.8569325 C20.3840798,16.3831902 19.8744479,16.0207055 19.278681,15.7694785 C18.6829141,15.5182515 18.026135,15.392638 17.3083436,15.392638 C16.5331288,15.392638 15.8009816,15.5218405 15.1119018,15.7802454 C14.4228221,16.0386503 13.8270552,16.4047239 13.3246012,16.8784663 C12.8221472,17.3522086 12.423773,17.9228528 12.1294785,18.5903988 C11.835184,19.2579448 11.6880368,20.0008589 11.6880368,20.8191411 C11.6880368,21.6374233 11.835184,22.3803374 12.1294785,23.0478834 C12.423773,23.7154294 12.8221472,24.2860736 13.3246012,24.759816 C13.8270552,25.2335583 14.4228221,25.5996319 15.1119018,25.8580368 C15.2032758,25.8923021 15.34163,25.9391411 15.5269642,25.998554 L19.0245549,26 Z M19.5693865,19.7855215 L14.2720859,19.7855215 C14.3725767,19.0390184 14.6489264,18.4432515 15.101135,17.9982209 C15.5533436,17.5531902 16.1670552,17.3306748 16.9422699,17.3306748 C17.7605521,17.3306748 18.3993865,17.5496012 18.858773,17.987454 C19.3181595,18.4253067 19.5550307,19.0246626 19.5693865,19.7855215 L19.5693865,19.7855215 Z" id="re" fill="#FFFFFF" fill-rule="nonzero" mask="url(#mask-2)"></path>
        </g>
    </g>
</svg>
