<?xml version="1.0" encoding="UTF-8"?>
<svg width="50px" height="29px" viewBox="0 0 50 29" version="1.1" xmlns="http://www.w3.org/2000/svg" xmlns:xlink="http://www.w3.org/1999/xlink">
    <title>pictogram</title>
    <g id="Page-1" stroke="none" stroke-width="1" fill="none" fill-rule="evenodd">
        <path d="M7.05052879,29 L7.05052879,13.8349624 C7.05052879,13.4424812 7.1386604,12.8537594 7.31492362,12.068797 C7.49118684,11.2838346 7.84371328,10.4988722 8.37250294,9.71390977 C8.9012926,8.92894737 9.66509988,8.23229323 10.6639248,7.62394737 C11.6627497,7.0156015 12.9847239,6.71142857 14.6298472,6.71142857 C15.1782217,6.71142857 15.7363886,6.76048872 16.3043478,6.85860902 C16.8723071,6.95672932 17.4500588,7.08428571 18.0376028,7.2412782 L18.0376028,0.412105263 C17.6067372,0.294360902 17.1856639,0.196240602 16.7743831,0.117744361 C16.3631022,0.0392481203 15.942029,0 15.5111633,0 C13.6310223,0 11.9663141,0.451353383 10.5170388,1.35406015 C9.06776342,2.25676692 7.95142969,3.53233083 7.1680376,5.18075188 L7.05052879,5.18075188 L7.05052879,0.706466165 L0,0.706466165 L0,29 L7.05052879,29 Z M41.4629087,29 C42.2338294,28.7439953 42.8076895,28.5361256 43.1844888,28.376391 C45.2213083,27.5129323 47.0622797,26.0607519 48.7074031,24.0198496 L43.6545241,20.1931579 C42.7536232,21.2921053 41.7058363,22.2046241 40.5111633,22.9307143 C39.3164904,23.6568045 37.8378378,24.0198496 36.0752056,24.0198496 C34.0775558,24.0198496 32.373678,23.4311278 30.9635723,22.2536842 C29.5534665,21.0762406 28.7309048,19.4278195 28.4958872,17.3084211 L50,17.3084211 L50,15.3656391 C50,12.8930075 49.6768508,10.7049248 49.0305523,8.80139098 C48.3842538,6.89785714 47.4833529,5.29849624 46.3278496,4.00330827 C45.1723463,2.7081203 43.7818253,1.71710526 42.1562867,1.03026316 C40.5307481,0.343421053 38.7387387,0 36.7802585,0 C34.6650999,0 32.6674501,0.353233083 30.787309,1.05969925 C28.907168,1.76616541 27.2816295,2.76699248 25.9106933,4.06218045 C24.5397571,5.35736842 23.4528006,6.9174812 22.6498237,8.7425188 C21.8468468,10.5675564 21.4453584,12.5986466 21.4453584,14.8357895 C21.4453584,17.0729323 21.8468468,19.1040226 22.6498237,20.9290602 C23.4528006,22.7540977 24.5397571,24.3142105 25.9106933,25.6093985 C27.2816295,26.9045865 28.907168,27.9054135 30.787309,28.6118797 C31.0366213,28.7055592 31.4141179,28.8336149 31.9197989,28.9960467 L41.4629087,29 Z M42.9494712,12.0099248 L28.4958872,12.0099248 C28.7700744,9.96902256 29.5240893,8.34022556 30.7579318,7.12353383 C31.9917744,5.90684211 33.666275,5.29849624 35.7814336,5.29849624 C38.0141011,5.29849624 39.7571485,5.89703008 41.0105758,7.09409774 C42.2640031,8.29116541 42.9103016,9.92977444 42.9494712,12.0099248 L42.9494712,12.0099248 Z" id="pictogram" fill="currentColor" fill-rule="nonzero"></path>
    </g>
</svg>
