<?xml version="1.0" encoding="UTF-8"?>
<svg width="448px" height="304px" viewBox="0 0 448 304" version="1.1" xmlns="http://www.w3.org/2000/svg" xmlns:xlink="http://www.w3.org/1999/xlink">
    <title>staircases-light</title>
    <g id="Page-1" stroke="none" stroke-width="1" fill="none" fill-rule="evenodd">
        <g id="staircases-light" fill="#000000" fill-rule="nonzero">
            <path d="M184,168 L184,301 C184,302.656854 180.418278,304 176,304 L176,304 L3,304 C1.34314575,304 0,300.418278 0,296 L0,296 L0,280 C0,275.581722 1.34314575,272 3,272 L3,272 L152,272 L152,139 C152,138.385515 152.492658,137.81418 153.337935,137.33851 C153.81418,136.492658 154.385515,136 155,136 L288,136 L288,3 C288,2.40793921 288.457358,1.85593652 289.246812,1.39096466 C289.705296,0.513251944 290.259813,1.70530257e-13 290.857143,1.70530257e-13 L290.857143,1.70530257e-13 L445.142857,1.70530257e-13 C446.720814,1.70530257e-13 448,3.581722 448,8 L448,8 L448,24 C448,28.418278 446.720814,32 445.142857,32 L445.142857,32 L320,32 L320,165 C320,165.614485 319.507342,166.18582 318.662065,166.66149 C318.18582,167.507342 317.614485,168 317,168 L184,168 Z" id="Shape"></path>
        </g>
    </g>
</svg>
