<?xml version="1.0" standalone="no"?>
<!DOCTYPE svg PUBLIC "-//W3C//DTD SVG 20010904//EN"
 "http://www.w3.org/TR/2001/REC-SVG-20010904/DTD/svg10.dtd">
<svg version="1.0" xmlns="http://www.w3.org/2000/svg"
 width="512.000000pt" height="512.000000pt" viewBox="0 0 512.000000 512.000000"
 preserveAspectRatio="xMidYMid meet">
<metadata>
Created by potrace 1.11, written by Peter Selinger 2001-2013
</metadata>
<g transform="translate(0.000000,512.000000) scale(0.100000,-0.100000)"
fill="#000000" stroke="none">
<path d="M0 2560 l0 -2560 560 0 560 0 0 860 0 860 215 0 214 0 3 -137 3 -137
43 66 c102 159 267 248 457 248 42 0 96 -5 121 -11 l44 -11 0 -208 0 -207 -62
14 c-43 10 -98 14 -173 11 -98 -4 -118 -8 -178 -35 -131 -62 -216 -174 -243
-321 -10 -58 -13 -193 -14 -534 l0 -458 773 1 772 0 -67 24 c-287 100 -487
310 -570 600 -20 70 -23 101 -22 250 0 155 3 178 27 258 79 256 235 438 470
547 148 68 229 84 417 85 142 0 176 -3 243 -23 271 -78 455 -278 533 -578 21
-81 27 -131 31 -271 l6 -173 -653 0 -652 0 7 -42 c17 -99 79 -208 150 -262 19
-15 65 -41 102 -58 57 -27 81 -32 167 -36 59 -3 126 1 159 8 86 17 183 71 264
145 39 36 74 65 76 65 10 0 297 -221 297 -229 0 -8 -133 -141 -170 -169 -47
-36 -145 -87 -220 -114 l-75 -27 753 0 752 -1 0 2560 0 2560 -2560 0 -2560 0
0 -2560z"/>
<path d="M3192 1439 c-58 -11 -139 -49 -181 -85 -49 -41 -108 -137 -131 -212
-35 -114 -83 -102 416 -102 l437 0 -6 66 c-23 240 -259 388 -535 333z"/>
</g>
</svg>
